<svg xmlns="http://www.w3.org/2000/svg" version="1.1" xmlns:xlink="http://www.w3.org/1999/xlink" xmlns:svgjs="http://svgjs.com/svgjs" width="1000" height="1000"><rect width="1000" height="1000" rx="200" ry="200" fill="#555555"></rect><g transform="matrix(3.8461538461538463,0,0,3.8461538461538463,0,0)"><svg xmlns="http://www.w3.org/2000/svg" version="1.1" xmlns:xlink="http://www.w3.org/1999/xlink" xmlns:svgjs="http://svgjs.com/svgjs" width="260" height="260"><svg width="260" height="260" viewBox="0 0 260 260" fill="none" xmlns="http://www.w3.org/2000/svg">
<rect width="260" height="260" rx="30" fill="url(#paint0_linear_0_1)"></rect>
<path d="M84.1602 244.637C76.6732 244.637 69.8372 242.781 63.6523 239.07C57.4674 235.294 52.8451 229.793 49.7852 222.566L42.168 242H33.1836V107.039H12.9688V95.0273H54.1797V150.008C57.5 145.125 61.6992 141.316 66.7773 138.582C71.9206 135.783 77.3893 134.383 83.1836 134.383C92.1029 134.383 99.9805 136.727 106.816 141.414C113.652 146.036 118.926 152.547 122.637 160.945C126.348 169.279 128.203 178.816 128.203 189.559C128.203 199.91 126.348 209.253 122.637 217.586C118.991 225.919 113.815 232.495 107.109 237.312C100.404 242.195 92.7539 244.637 84.1602 244.637ZM80.1562 232.82C85.2995 232.82 89.8893 230.802 93.9258 226.766C98.0273 222.729 101.055 217.456 103.008 210.945C104.896 204.565 105.84 197.859 105.84 190.828C105.84 179.305 103.952 169.083 100.176 160.164C98.1576 155.607 95.4232 152.026 91.9727 149.422C88.5221 146.753 84.5833 145.418 80.1562 145.418C75.9896 145.418 72.1484 146.688 68.6328 149.227C65.1172 151.701 62.3503 155.021 60.332 159.188C58.3138 163.224 56.7839 167.456 55.7422 171.883C54.7005 176.31 54.1797 180.672 54.1797 184.969C54.1797 193.888 55.2214 201.961 57.3047 209.188C59.388 216.349 62.3828 222.046 66.2891 226.277C70.2604 230.639 74.8828 232.82 80.1562 232.82Z" fill="white"></path>
<defs>
<linearGradient id="paint0_linear_0_1" x1="130" y1="0" x2="130" y2="260" gradientUnits="userSpaceOnUse">
<stop stop-color="#5D6CFA"></stop>
<stop offset="0.9992" stop-color="#FA00FF" stop-opacity="0.21"></stop>
<stop offset="0.9993" stop-color="#5D6CFA" stop-opacity="0.286458"></stop>
<stop offset="0.9994" stop-color="#E013E4" stop-opacity="0"></stop>
<stop offset="0.9995" stop-color="#5D6CFA" stop-opacity="0"></stop>
</linearGradient>
</defs>
</svg></svg></g></svg>