<svg id="visual" viewBox="0 0 1800 600" width="1800" height="600" xmlns="http://www.w3.org/2000/svg" xmlns:xlink="http://www.w3.org/1999/xlink" version="1.1"><path d="M0 365L30 393.2C60 421.3 120 477.7 180 484.5C240 491.3 300 448.7 360 453.5C420 458.3 480 510.7 540 511.3C600 512 660 461 720 432.5C780 404 840 398 900 420.3C960 442.7 1020 493.3 1080 527.3C1140 561.3 1200 578.7 1260 578.2C1320 577.7 1380 559.3 1440 548C1500 536.7 1560 532.3 1620 518.2C1680 504 1740 480 1770 468L1800 456L1800 601L1770 601C1740 601 1680 601 1620 601C1560 601 1500 601 1440 601C1380 601 1320 601 1260 601C1200 601 1140 601 1080 601C1020 601 960 601 900 601C840 601 780 601 720 601C660 601 600 601 540 601C480 601 420 601 360 601C300 601 240 601 180 601C120 601 60 601 30 601L0 601Z" fill="#ffffff" stroke-linecap="round" stroke-linejoin="miter"></path></svg>